<?xml version="1.0" encoding="utf-8"?>
<!-- Generator: Adobe Illustrator 16.0.0, SVG Export Plug-In . SVG Version: 6.00 Build 0)  -->
<!DOCTYPE svg PUBLIC "-//W3C//DTD SVG 1.1//EN" "http://www.w3.org/Graphics/SVG/1.1/DTD/svg11.dtd">
<svg version="1.1" id="Ebene_1" xmlns="http://www.w3.org/2000/svg" xmlns:xlink="http://www.w3.org/1999/xlink" x="0px" y="0px"
	 width="200px" height="56px" viewBox="0 0 200 56" enable-background="new 0 0 200 56" xml:space="preserve">
<g>
	<linearGradient id="SVGID_1_" gradientUnits="userSpaceOnUse" x1="35.5063" y1="20.2446" x2="35.5063" y2="27.2344">
		<stop  offset="0" style="stop-color:#FDCB38"/>
		<stop  offset="0.2727" style="stop-color:#F9B52D"/>
		<stop  offset="1" style="stop-color:#EE7C10"/>
	</linearGradient>
	<path fill="url(#SVGID_1_)" d="M38.627,25.809c0,0.787-0.589,1.425-1.317,1.425h-3.608c-0.728,0-1.317-0.638-1.317-1.425v-4.14
		c0-0.787,0.589-1.425,1.317-1.425h3.608c0.728,0,1.317,0.638,1.317,1.425V25.809z"/>
	<g>
		<linearGradient id="SVGID_2_" gradientUnits="userSpaceOnUse" x1="14.9805" y1="56" x2="14.9805" y2="22.9854">
			<stop  offset="0" style="stop-color:#180606"/>
			<stop  offset="0.101" style="stop-color:#210707"/>
			<stop  offset="0.2689" style="stop-color:#3B0809"/>
			<stop  offset="0.4829" style="stop-color:#640A0D"/>
			<stop  offset="0.7347" style="stop-color:#9E0D12"/>
			<stop  offset="1" style="stop-color:#E21118"/>
		</linearGradient>
		<path fill="url(#SVGID_2_)" d="M0,22.985h3.482v13.109c1.471-2.864,4.119-3.739,11.621-3.739c6.816,0,10.102,0.631,12.014,2.282
			c2.011,1.747,2.844,4.563,2.844,9.564c0,4.953-0.833,7.768-2.844,9.518C25.205,55.368,21.968,56,15.103,56
			C7.65,56,4.904,55.126,3.482,52.262v3.397H0V22.985z M4.855,37.308c-0.932,1.214-1.422,3.399-1.422,6.749
			c0,7.914,1.422,9.03,11.376,9.03c6.423,0,8.729-0.485,10.052-2.038c0.98-1.214,1.422-3.399,1.422-6.847
			c0-3.884-0.54-6.117-1.814-7.282c-1.324-1.215-3.825-1.651-9.611-1.651C8.483,35.269,6.13,35.754,4.855,37.308z"/>
		<linearGradient id="SVGID_3_" gradientUnits="userSpaceOnUse" x1="35.2808" y1="55.6592" x2="35.2808" y2="32.6958">
			<stop  offset="0" style="stop-color:#180606"/>
			<stop  offset="0.101" style="stop-color:#210707"/>
			<stop  offset="0.2689" style="stop-color:#3B0809"/>
			<stop  offset="0.4829" style="stop-color:#640A0D"/>
			<stop  offset="0.7347" style="stop-color:#9E0D12"/>
			<stop  offset="1" style="stop-color:#E21118"/>
		</linearGradient>
		<path fill="url(#SVGID_3_)" d="M33.54,32.696h3.481v22.963H33.54V32.696z"/>
		<linearGradient id="SVGID_4_" gradientUnits="userSpaceOnUse" x1="53.3745" y1="56" x2="53.3745" y2="27.5981">
			<stop  offset="0" style="stop-color:#180606"/>
			<stop  offset="0.101" style="stop-color:#210707"/>
			<stop  offset="0.2689" style="stop-color:#3B0809"/>
			<stop  offset="0.4829" style="stop-color:#640A0D"/>
			<stop  offset="0.7347" style="stop-color:#9E0D12"/>
			<stop  offset="1" style="stop-color:#E21118"/>
		</linearGradient>
		<path fill="url(#SVGID_4_)" d="M40.601,32.696h5.59l0.098-5.098h3.481l-0.049,5.098h15.887v2.913H49.623l-0.196,11.507v0.389
			c0,4.709,1.177,5.583,7.404,5.583c3.187,0,4.806-0.485,5.589-1.747c0.491-0.777,0.589-1.457,0.589-4.855v-0.778h3.138v0.922
			c0,4.516-0.196,5.73-1.226,6.992C63.598,55.32,61.097,56,56.586,56c-4.854,0-7.159-0.486-8.777-1.941
			c-1.52-1.359-1.913-2.574-1.913-5.876v-1.067l0.245-11.507h-5.541V32.696z"/>
	</g>
	<g>
		<path d="M71.084,22.985h3.481v13.109c1.471-2.864,4.119-3.739,11.621-3.739c6.816,0,10.102,0.631,12.014,2.282
			c2.011,1.747,2.845,4.563,2.845,9.564c0,4.953-0.834,7.768-2.845,9.518C96.289,55.368,93.052,56,86.187,56
			c-7.453,0-10.199-0.874-11.621-3.738v3.397h-3.481V22.985z M75.939,37.308c-0.932,1.214-1.422,3.399-1.422,6.749
			c0,7.914,1.422,9.03,11.377,9.03c6.424,0,8.729-0.485,10.052-2.038c0.981-1.214,1.422-3.399,1.422-6.847
			c0-3.884-0.54-6.117-1.815-7.282c-1.323-1.215-3.825-1.651-9.61-1.651C79.568,35.269,77.214,35.754,75.939,37.308z"/>
		<path d="M131.643,34.638c2.011,1.796,2.845,4.563,2.845,9.709c0,4.808-0.882,7.623-2.845,9.372
			C129.682,55.417,126.494,56,119.384,56c-7.061,0-10.248-0.583-12.21-2.281c-2.01-1.75-2.843-4.564-2.843-9.565
			c0-4.953,0.833-7.769,2.843-9.516c1.913-1.7,5.149-2.282,12.21-2.282C126.494,32.355,129.682,32.938,131.643,34.638z
			 M109.429,37.308c-0.98,1.214-1.421,3.399-1.421,6.846c0,3.883,0.539,6.117,1.815,7.283c1.323,1.213,3.775,1.65,9.609,1.65
			c6.326,0,8.68-0.485,9.955-2.038c0.931-1.214,1.422-3.399,1.422-6.75c0-3.98-0.541-6.166-1.814-7.378
			c-1.325-1.215-3.777-1.651-9.514-1.651C113.058,35.269,110.704,35.754,109.429,37.308z"/>
		<path d="M138.605,32.696h3.481v4.563c1.52-4.175,3.971-5.195,12.405-5.195c5.003,0,7.553,0.486,9.416,1.894
			s2.599,3.398,2.599,7.233v14.468h-3.481V41.386c0-4.952-1.717-6.069-9.513-6.069c-8.337,0-11.425,1.845-11.425,6.846v13.496
			h-3.481V32.696z"/>
		<path d="M174.301,44.833c0,3.933,0.295,5.05,1.472,6.311c1.521,1.603,3.286,1.942,9.808,1.942c8.237,0,10.297-0.825,10.787-4.32
			h3.579c-0.146,2.087-0.735,3.447-1.961,4.612C196.024,55.32,192.738,56,185.383,56c-6.717,0-10.002-0.632-11.915-2.281
			c-2.01-1.75-2.844-4.564-2.844-9.518c0-5,0.834-7.817,2.844-9.564c1.913-1.651,5.198-2.282,11.867-2.282
			c7.796,0,10.984,0.826,12.847,3.398c1.373,1.845,1.863,4.126,1.815,9.08H174.301z M196.319,42.017
			c-0.05-1.845-0.197-2.767-0.688-3.738c-1.324-2.428-3.236-3.01-10.297-3.01c-7.11,0-9.072,0.582-10.347,3.01
			c-0.491,0.922-0.638,1.795-0.688,3.738H196.319z"/>
	</g>
	<linearGradient id="SVGID_5_" gradientUnits="userSpaceOnUse" x1="40.1865" y1="12.4985" x2="40.1865" y2="24.0317">
		<stop  offset="0" style="stop-color:#F08627"/>
		<stop  offset="0.1418" style="stop-color:#EF7C26"/>
		<stop  offset="0.3797" style="stop-color:#EC6223"/>
		<stop  offset="0.6844" style="stop-color:#E8381D"/>
		<stop  offset="1" style="stop-color:#E20517"/>
	</linearGradient>
	<path fill="url(#SVGID_5_)" d="M44.157,21.681c0,1.299-0.75,2.351-1.675,2.351h-4.591c-0.925,0-1.675-1.052-1.675-2.351V14.85
		c0-1.298,0.75-2.351,1.675-2.351h4.591c0.925,0,1.675,1.053,1.675,2.351V21.681z"/>
	<linearGradient id="SVGID_6_" gradientUnits="userSpaceOnUse" x1="33.1885" y1="2.688" x2="33.1885" y2="15.0869">
		<stop  offset="0.2473" style="stop-color:#E36526"/>
		<stop  offset="0.3292" style="stop-color:#E35D25"/>
		<stop  offset="0.4577" style="stop-color:#E34721"/>
		<stop  offset="0.6157" style="stop-color:#E2221C"/>
		<stop  offset="0.7253" style="stop-color:#E20517"/>
	</linearGradient>
	<path fill="url(#SVGID_6_)" d="M39.237,12.56c0,1.396-1.143,2.527-2.552,2.527h-6.993c-1.41,0-2.552-1.131-2.552-2.527V5.215
		c0-1.396,1.142-2.527,2.552-2.527h6.993c1.41,0,2.552,1.131,2.552,2.527V12.56z"/>
	<path fill="#E20517" d="M50.314,5.825c0,0.824-0.709,1.491-1.583,1.491h-4.335c-0.874,0-1.583-0.667-1.583-1.491V1.492
		C42.813,0.667,43.522,0,44.396,0h4.335c0.873,0,1.583,0.667,1.583,1.492V5.825z"/>
	<path fill="#E20517" d="M49.337,12.224c0,0.403-0.361,0.73-0.807,0.73h-2.211c-0.446,0-0.807-0.327-0.807-0.73V10.1
		c0-0.403,0.361-0.73,0.807-0.73h2.211c0.446,0,0.807,0.327,0.807,0.73V12.224z"/>
</g>
</svg>
